<mxfile host="Electron" modified="2024-02-16T05:53:12.319Z" agent="Mozilla/5.0 (Windows NT 10.0; Win64; x64) AppleWebKit/537.36 (KHTML, like Gecko) draw.io/21.2.8 Chrome/112.0.5615.165 Electron/24.2.0 Safari/537.36" etag="ri8a9R85dCCr3i9M3Wt0" version="21.2.8" type="device">
  <diagram name="Page-1" id="2XWkQP5S-hDbL94sL5Vg">
    <mxGraphModel dx="2298" dy="1180" grid="1" gridSize="10" guides="1" tooltips="1" connect="1" arrows="1" fold="1" page="1" pageScale="1" pageWidth="3300" pageHeight="4681" background="#999999" math="0" shadow="0">
      <root>
        <mxCell id="0" />
        <mxCell id="1" parent="0" />
        <mxCell id="APLwThIm-aDqV8bCMrbt-1" value="FileDialog" style="rounded=0;whiteSpace=wrap;html=1;fontSize=25;fillColor=#dae8fc;strokeColor=#6c8ebf;" parent="1" vertex="1">
          <mxGeometry x="1298" y="140" width="650" height="60" as="geometry" />
        </mxCell>
        <mxCell id="NLs_M3O2JDTFgwJ7y9WD-1" value="" style="shape=image;verticalLabelPosition=bottom;labelBackgroundColor=default;verticalAlign=top;aspect=fixed;imageAspect=0;image=data:image/png,iVBORw0KGgoAAAANSUhEUgAAAo0AAAGiCAYAAACCv/wzAAAAAXNSR0IArs4c6QAAAARnQU1BAACxjwv8YQUAAAAJcEhZcwAADsMAAA7DAcdvqGQAAELuSURBVHhe7d0HgBTl4ffx3+5ePw4OjgOkSFeQIkis2GgWsGCMUaOxC4jR5B9josZgiZq8StRgLFhiRDRqTBRsMUFQQWOLiGKJiiAi7WhSjqu77zwzs3d7y97O1d3bu++He3ZnnmnPzs7t/nhmd843ZOiwkIxQSM5AtZBVV0OMeWpX9zn30IhFGyoJm0yCtrFj28ZzCaAl87n3CZXwjSblUaaUBu+hRu3aui1sz+WrOa8zWl0XPY8TGqPCYPyw6A5Zd1FzpbgGPppG7ITWtf+aQxL2UBt5Ujj2kCw136JauKQ0NqX2UMI1au80eOHW85zYj6T6xuaM1nyMkeExcrpvyJChERHRzo81VAdI9966i5qlFnWbK6YGLtqILSZJYh9o6u2ftiKFnhkOopan5ms9YmInxZOUvdPgjabWc9nyHqazYvu2+sbmixMcDTPdt58VGp3RqMAY3bvo/Liix1uKRrSogYu2vH0QT+L3T2Ok1r5NBvYQ2pKab2jYU4P3UOIXTClRWaqeWt4+igyD1YOR486wsUdwdEJjzcAY3btYPRoZJI2aYzXEmeSlEYs2XOQOqIektDUpGvhI28gOajvHAYC6qH6bTaAGbzQprU245Oyehi3cfJusnmgPuQFxj3Bo3+w5zQqNQyIyYm29i1G9kHuMx+I5Q+0auGgjttgIbeVxthUptHdT7EDguG0e1S/zrVxSHmib2bsJ1+A926inJPHPZ0t8nPZUNxAa4VDo3oVvasxXNc/g/YY4r+VRgTEySKalpys3N0cZ6RnKyMxQIBBo1neAyJYghpTaPYlvLEcPgGRz3moTLTlbbZAUamoyuBGueVirrqysVGlpqcrKylVcXKyK8nKr3tlmOCBW3br1hhMa4wTGvLw8dcjvoM1bd2p3ablKrA2Ul1e6M6D+qne+I1bEiZ4HqI05Vuobk2tbJtHHXWQbGrvt6MdT1/U1ZN9Fq+86kHit6TlqKY+luduR/McZ/m2P1ZL6vWK1vOMvPS1NWZnpVslQ504dtG3bd9qxfbv1wJxHVltw9A0evF9VRjQPLDxizll37tzZqgloXdE2lZVXOBPQCM5OB5pO+Jiq64tSvPmTcXyG29EU2458THVdX/R+MMvVti/jrbO2ZdBytKbnqCU8lkS0IbmPM/wbH6sV9XvFatnHXkZ6mroVdlJawKeNG4vcWusx2g/SeaTOoE/+6ocSDozmPqT2eXnWUEBfr91EYGwS9TvEgLoxv7Qt+wUpPvN70VS/G+F11Wd9kcuEl6vP8mG1LRO5XiQXz0PqaRnPWXQrWtuRZDLe6rUbVVHpnF12vuhSnQmrbq0KvzMWGRidbktzStr0MKIp8GKFZDHHXmRB84nev5Hj7PuWIfx7wPPReInahy3juWoLR876oi3K79DBzoCRmdCNjDYrNFqV7ogzUcptl2t/hpEexoaIPLRa+yGGlo1jr+Gi911d92X4dz7W/PGmxVLf+duK6jewxoncv9EFdcO+8tZUx2vzM5lv09bvlJObY4+HM2FVgLRu/c7jMWmyeqr5lrT50gvqi18gNLe6HmP1PRY5dhMr3v4206Kn8/wkVkva3+57M5AAJaVldgYMJ8bwqerwYeh8ptEdMTOZQXNZHfMtaRjhF/DIEktt9UBTCR9jXsdaXY5FM09kwZ6ae/9Erj+y1MZrelvRnPvAvAOGC9D2lJSWKzMz0/kNqOpMdH8jrHHfvvsOCudJd3pIfXr30cdffmvX1qZ9Xo7S0wLuWN2VV1Rq+45id6yl4wUaLUWsY9H9ha6BY7btiH7+a3vuYx0nqKkl7yPTtujntiW1NxFtSc7jbZpX05Z8bMW234DeWvX1KmvIV/UN6qr7fazQaAbDp6fNfZ8+vfXJl2vt8drccdst6j+gvzsWW/iPX3+7flNVYN21fbN+fuU18vvrHzgTq2kOF6DxajsWY70Ycdy2PeY48HreYx0rbVV4X0Tus5a8f2I9vy2pvYloS3Ieb9O8mrbkYyu2wQP21qpVX0cERmdPmLuqb087d3V/cPkd8jRk0MC4Zb99B9hlwlGH6JijnVLYuaBe2wHatngvW9HT4s2L1ovnvX7M/kqlfVbXtoYfVyo9tsT67XW/1uovluvbrz6NWcw0M09L88bCf+qwgw9yx/Zkpi155SV3rKmEzz5HZEPrzulptCpMVXhCXXoa5zx0t3r27K9nF38hnz/klIApQU3cf4C6de2gnTt32fPm5ubq72+stIf75hXr7POmKBBIs8ejLf/vEq20Eu6Jp57l1lRbsvAF+/7wsZPs+6bRNL9gF553lm6ccZU75vjXgkU6f8rl7pisg/IjPTznr7r2+lvcmj0t/+9iXTjtp3r73ffdGrQ99Tkm3V9m3ihaqaZ4fsPrQO1a2z5K5ONJxLaaZhsmFE6YOFnrNmxwa2rq1LGjXl/wovYeONQeb5pX1ca33YTCu+68TZf97Eq9+fY7bq0j3rSGcnoaw6ennb1g7s2Q09PYAGZxny+gld/t1KodO/R18XZ9U/qd1pRvU3l50AqgVnH/hQUy6vbnBw8Yub8OPnCUO+Yw432tMNu0mvaN1oTdHv2GVZUDR420gu7z7lTZdfECI1D/Y9LM37THMVoC87oZ+WYTHo+sq03kvHWZH/wetQ2BQMAOjNu374hZVn292p6npTFh0IRCEw4jexybIzB6aXBorAwG7fvCgkz5Mir0XcV2FZVs1obdzp+g8UW9VmV1LFFO57p9Aeb9pcs07eLz3DGHGTf1DRPrxaCuLxANf9EdOuoI+0KZphcS8MabVtsQGehqK/HEmi9WHeqP30G0TNHBMRmB0Yi4uLf7YmNOUdfhdSc8y6cb1mjltnXaVrFVu7VDZb6ddn3I/d1zOjSl3PydymnnTPPy7HMv2r10kY4ZP8auj/Tw/Xfp26/M5xOWV526NsxwuP6m653PJzz398er6sxyTt1j1vhHVSVSdb2Zf5Zdwswp5PD0m66/xq2NbeWq1VU9pGa5gw88oGo4vI7I3shIJmyG54nelhkO15vHEblupCLerAAAtYsMjs0aGE3As0OeyYPhtOdkxUacnnbstkJiena50rPKlZZZpnSr2Ky1hwOjMaiwlwbk93PH4lv+8Wfa9t13VT10JiCZzwdGMnWdCzqpR7+hdvniy6/sOlO2bt1WVW9OB5v1dOzYwT49bOrCnzM0n5sMn0o26w8HQxPizHh4mgmsYWbaHXfdVzVt8onHu1Ni27R5s3p07+aOVTO9kOF1GNG9kSYAms9Ifv/0c6vmO/+cM+35zDQzHJ627KOPrceX7y6J1GF+P8IFbUfk8+5VotU2PVYd6i/8Bgkv3371sVs+iVvQujQ4NIbZYdEq6ZmmRIRG67Ur8tdvQMf+dqmrh+c8bgWjH9nDk0+cqPse+Is9HLb/sCH2Zx/DvYcm2Jm651542a4P9yYaD/3lMbu3z/TIRb6omvAV7q2LDIZm3sgvsEQGVjPNhLnwciasRQe+SJ0LCvTt2vXuWLXInsJYn9U8cdJxen/phzW+EGPacfhhB+8xzQRjE5SRSnhzR12Eg2C41EX0MuGC2pl3KwJjffToN8Qq+3kWNJ3IU9KRp6oTqdGh0QmMTljMMPcZTmh0vokd/iUMqay8XLt3l7jj3kzQM58HNOHK9Dq+/e5/3SnVTLB0ehRNT9xQu+fQzGeGDRMmzfJGuEfOhDTTo2gC4z+efMRd1ulpDPMKYOFlwsW0tTYHjBxuBdl/umMO06ajjzysannzBZq6CgdQ04OJVMQbOJKFYw9NiZCdSNGfYYz+jGOiNDw0Wq89paW7dXDn/vpex4E6oP0+GpE7WMOzh9j1zizOC5TJj8FgsOrLM3X17n+X2r2NJhxGMwHQ9EBWvwjWfDE0PYXm8jam9zHM9MjNuPH3GjjAOU0eGQ6jP0MZDptGZC+kCXiRn2+MxwRUE0ZjXT5n69bv7HsTXmP1NJqgaQKnmR5m2mHqTRsi22TayunpVMAbNgAkS2VlpX1Zndp069bVnqelqe1LL8kIjg0OjSb/Dd63l6aOGa+pRx2ji484XhcdcZIuHH2yBu3bUzk5uerSpVCdCjopPSPdDo1+f/3eNM+fcpkd7GL15JkAaMJT+BSvKReed7YdoJxT1h/Zn/szvY/m9HF4HnNq+YpfzbCDnOnBDNebL6yEmeskmmXD0yJ7IQ8fe4Id2MLTzBdQwkz4C9ebYgJq5GnuMNN2EwjNPA/d98eYPY2mfWZ50xsauT5Tb/aHaVO43gRjTk+3ZOa4JzACaG6RZ/gQ7ZG5f7Wvwxjrwt6mvLP4FXuelsRcH/HWW27YIzCGhYPjbb+70a1pXr599t3XvaZ3yPmSjHXTp08ffbIi/sW9f3bZNI0cMdwd25Pf77eLSe2RfwHmw2XLddsds+Sv5eLe9df8b8bms5CmZ9OEvZbKhEdzqhstBSERLRGBonapvG8S3fbWvj1H07yKN77tJjhG5qjmNri/e3FvawfYZ4zNhb3tnWHdNzQ02hfvDpoLeNeP2a7PCpM+X7xOzlhPVW1bijVv0zG9lOFvMcc6zdwSmFBrvh1uekGRSLUdp817TAINV99X7LYklfdNotve2rfnaJpX8tQ7rpolNDafeE9T9M5vmqc0mglh5vRxmDktHO/LLslgehbDzKlpcwkfJFrzHH9A80m9N7DEStX9k8h2J2MfJed5aZpX+NQ7puKHxn2s0Gg9qHBgNHd9UyI0Ns3TCTQMxx9SUfQbWORxnHpvbs0jVfdDotqdjP2TnOekaV7lU+94MqFxpRUa7cdvB0Y7OtrDjb7kTtPyeorM9HABEiny2OP4Q6oKH7uxjuNwXXR9WxO5H2KVliq6fc3V3pa8D9DckhAam+tABozw8VXXYyxy/ngFaC04nhunpe8/XrPQfBIcGiMP5OiDmoMcTS3ei2e8aQCAloPX6pYiyaenw2/cHBBoTpHHGccbgMZI1c88NiVeQ9uqFvaZRgBAYhGC6sbsp1TbV83Z3kQHR4JqS0BoRCvCiwpQP+FQEQ5E4YKaUnGfJKLNBMe2pplCY6wnlicbAIDmR/BH86j1Oo0/+MGpuvfee7V2bbKu15iaunfvrksuuURTp051awAAAFLDhAnH1HqdRt9AKzQ6YdENjta9CY1FRUXq1q2b/ddhzN+QhrdgMGhfRX39+vX64IMP3FoAAIDUMH7CBK1aaf4ijAmM5jyxuXGHawuNy5Yt0ymnnKJdu3aptLTUXhHiy8zMVG5urp555hlt3LjRrQUAAEgN8UJj3C5E0yVZUlJihUkTKClexewrs88AAABaG847AwAAwFPc0BirN43iXQAAAFobehoBAADgiZ7GZigAAACtTfP2NOb01xEnTra/hT35pON11Iieahdwp9VXwTG6fvb/6eBcd7w27jYnjih0ritUQ5b6jD5JJ48dpPZuDQAAALx5hsZYPWl1LpV5GjZpvPYr7KTCXkM0YcotmnXtCeoViDGvZ7FbE6M+qljbHHr8KTr1h2PVN3o7HQ7UaeecoZMP3Uv+yPomLAAAAK2RFRqtsGOG3Lxjck84+sQKRfUt8hXrk+cf1Oy7btU1V9yp93tO1PgB6Qr505WZbjbvzhs9rjTldOqiLvnZViPdddlt8isz36rvkFE9b1RR5XqtzzxaE4fnRNT71OvoY9SlaLVKfTUfmz8rX1265CvbX13XmAIAAJCqqnNgeNgZaN7T066qHFW+S8UVAaWnSYF+Z2rmzNPVx21BoPdpuu2OszXAnL5uf4Auvu0+3X7DNZpx+yz98siOzkzBdjp4+q267YYZ+v19D2vmmfso05lSgy+tXJ+9/Y2GTDpUBW6dsobq+HEBLf94e8SDzlK/k6/T7Nm36jczbtPs+2doUi+rcQAAAKghbmiM1YtW72KtJy27gzoV9tHBZ5yro0Lv6c0vS+1pNbdhj9nDhYdO1oHrH9QVl16u6edN0cw3tznz5PdR2uIbdNll0zX9lsVqN3as9skILx9RrDVt+s98Le12vMb19tt1nQ45QcPXvKzF64J2ijV1gb6n6LJJO/TQ5Rfr0ulTdPX8LJ14+oHKC6+ngQUAAKC1af6eRn9vff/6Wbrj1mt0evcPdee1D2hZsTutFls+XarNI6fp+stP0oguaSovs4KeseNTvbX8OzsUFq/5UuuUp3bpzqRovt3L9dKCMo0+bpiyA7019oQeWv7SO9oS8ZALhwxXu105OnLqr3TVVVfq7OHZyuzeSx35oy4AAAA1NHNPo7WS4Nd6+qpz9eNzL9LPbpmrdzdWVE8zf8vQ7V0M2cPONstX/V1XX/wbPbN5mKbOuldXjM63g6JClaqsdOcPBuVESXe8qtiV8vtC+vrVl7XhgBM17uhJGlO5QPOX7VBFRaU93czn81tb3/iBXn7hRb300kt6cd7D+sP9i7W5xvrqXwAAAFqbZj89bUJdpRXUousrd2zRzvb91DffbCdNPUcOU6EbAHM6FShr50q9/ujNuvnJIvUf2VdZVn10m8y6I8er62WFSytgFr2p+e/k6/jT9tM3LyzUaitwBu3J1k0oqE1ffKHKgfso6+tlWrp0qZYu+0qbt36n7dZMsdZb1wIAANDaNP/p6VoyVGj9Ys1b2ksXzbpf99z9R13Se7s2uNPyDrtCDz72oO6+6z7dfHKFXnnxY+12p9WVFd+s291a/vJ/tDu4XM+9tcWZEKFk+ZOa/UYvXXb/HN131916aM6dumBojjsVAAAAYb6B++zjdI6ZXjL7LqS+ffvow2XLNGnSJBUVFdkzNoxf6VkZ8pWXqMw5KxwlYF9WJy+4RRt3hJQZCKq0rMJqh1+Z7QvUMatC27dsVXGFNau5JE+GTxWlZao0DfWlKTPTr0prvKJGMHW2qbISldvnr30KBEzPoztTWoayfBUqcSZafEprV6DCPGnXli3aXhqub5jCwkK98MIL2rhxo1sDAACQGsZPmKCVK1fJ53O+4GHuzaD5EGEz9zQGVV5SW2A0KlW8ZZ02bCtVqLJMJXZgNKzwuL1I6ze6gdGuKldpiRsYjVCFPV4zMBrONqsyobXGqsBoVFjbqZ5oCali5yatW7ep0YERAACgtTJ/GKWql9HcmxDlJje715FS/wIAAJCSnEBoQqA9at87Pwn4TCMAAABSXtzQaL6BnJmZWaMXjVJ7MfvK7DMAAIDWxjdg4D4m8bi9keY+pL59+mrTpiLl5+erZ8+eCphvksCTCYxr1qzRtm3b9MEHH7i1AAAAqWH8+AlauWql/cUX53razpdh7OHaQuNpp/1A9957r9auXWumoI66d++uSy65RFOnTnVrAAAAUgOhMQURPgEAQKI1KDSa09PdunVTnz595PfzfZlECgaDWrVqldavX89pbgAAkDANCo0ffrhMp5xyinbt2qXS0lIzFQlivlCTm5urZ555houEAwCAhIkXGuN2IZqZSkpKrCxpciUlUcXsc/sJAgAAaCFqhEant9EeBAAAQFtkZcHIOOgMmz/yHEesXjBK4goAAEBLwTdcAAAA4Klt9jRaDzst4DMPcM9pLagAAAC0FHXvaczpryNOnGx/o3ryScfrqBE91a6hfyim4BhdP/v/dHCuO14bd5sTRxTa396pKUt9Rp+kk8cOUnu3pi7S+56kGfc9pAfv+okOaudW1ldd2x+p4Nj6LwMAANBCeIbGqp6vyjwNmzRe+xV2UmGvIZow5RbNuvYE9QrU7B2rW7HXHKM+qljbHHr8KTr1h2PVN3o7HQ7UaeecoZMP3Uv+yPq4JVvDjh+nwLxrdN4ls/T2zljz1KXUsf1RxVePZQAAAFqSep2elq9Ynzz/oGbfdauuueJOvd9zosYPSFfIn67MdGtV4Xmjx5WmnE5d1CU/29qguy57/X5l5lv1HTKq540qqlyv9ZlHa+LwnIh6n3odfYy6FK1WqX2WuXp+f1a+unTJV7a/uq66ZKpDpwwV765QesBcRNupV3qeOnfpoo7ZkW0OKCMzXX6f1fa8PGVGrc+r/Xu2w5rFXsYaDq/bGs9oX6guHbNiBl8AAICWIm5ojKUqy5TvUnFFQOlpUqDfmZo583T1cdcW6H2abrvjbA0wp6/bH6CLb7tPt99wjWbcPku/PLKjM1OwnQ6efqtuu2GGfn/fw5p55j7KdKbU4Esr12dvf6Mhkw5VgVunrKE6flxAyz/eHvEAstTv5Os0e/at+s2M2zT7/hma1MtqXJUCjb/6Vl0wtLNGXnib7v7lOHW2ttj3xN/o/odn6bfXXqeZD1jtuGCEc7q703j9etZVmn7lH3XvPb/WCd2jTpDX2n6vdlg6jbPW/UtNvXym7rhlhm688yHdd81x6hk1GwAAQEsRNzRG93yZvJiW3UGdCvvo4DPO1VGh9/Tml6X2tJrz22P2cOGhk3Xg+gd1xaWXa/p5UzTzzW3OPPl9lLb4Bl122XRNv2Wx2o0dq30ywstHFGtNm/4zX0u7Ha9xvf12XadDTtDwNS9r8bqgnWJNXaDvKbps0g49dPnFunT6FF09P0snnn6g8sLrCW3Sv2/5hR76aJPev/cyXXjTv7S136n66eQyPfbTCzT1J5fogml/0urR0/Wj4Vn2MmrXW5lvzdC5Z/1KT38TdNfjllraH68dblejs+4OA5X/0e/1k+mXaspFN+qN7qfrzIPa19gGAABAS2GFRiug2IN2orGHauXvre9fP0t33HqNTu/+oe689gEtK3an1WLLp0u1eeQ0XX/5SRrRJU3lZVbQM3Z8qreWf2dvsXjNl1qnPLVLdyZF8+1erpcWlGn0ccOUHeitsSf00PKX3tGWiMxbOGS42u3K0ZFTf6WrrrpSZw/PVmb3XuoY4w+rmL/tbLZbuN9QZX34it4pqrTrQ9s/0pKlQfUf4H7xpvQrvfdBkczce2S4Wtpf53bs+lSL39soe8ulK/Tu0p3qtndnNfS7RQAAAE3BiTzWrenEqhquV0+jVRH8Wk9fda5+fO5F+tktc/XuxorqafbfJ3TntYed5ctX/V1XX/wbPbN5mKbOuldXjM53GhCqVGWlO78V4pwo6Y5XFbtSfl9IX7/6sjYccKLGHT1JYyoXaP6yHaqocMOeNZ/Pb2194wd6+YUX9dJLL+nFeQ/rD/cv1uYa63PWad3a99ZCCqSlyRcxPRiy2uKGSlXsVnFZ9bSqYm80VvvjtcNMjVi+skxl5e54yK+MzDSFKipUGd6GVQAAAFqKep2eNqGn0gpq0fWVO7ZoZ/t+6ptvlklTz5HDVOgGpJxOBcrauVKvP3qzbn6ySP1H9lWWVR+9/qpAFVWMykoroBW9qfnv5Ov40/bTNy8s1GorsAXtydaNFfQ2ffGFKgfuo6yvl2np0qVauuwrbd76nba7X3Zxij232bD1E1TRpx+rZPgYHdjZOe2tvKE6YkRQn3y83lq3Pae73J4leppZs1lnre2IWkZ5g3TQ4Dy7LWq/v44aJX26fK293ep1AgAAtAxxQ+MeaskxofWLNW9pL100637dc/cfdUnv7drgTss77Ao9+NiDuvuu+3TzyRV65cWPtdudVldWhLJud2v5y//R7uByPffWFmdChJLlT2r2G7102f1zdN9dd+uhOXfqgqE57tTYyv73pP44P1vn3j1H999zn/5y3zR1evEO/fWzMneO+qtzO77boJzJM/WA2e79l6nX6/forx+XuhMBAABaFt+AgQPdTi23d8v66du3rz78cJkmTZqkoqIie0aTL9OzMuQrL1GZc1Y4SsC+rE5ecIs27ggpMxBUaVmFtTq/MtsXqGNWhbZv2ariCmtWc0meDJ8qSstUabbtS1Nmpl+V1niF3ZYwZ5sqK1G5ff7Xp0DA9Dy6M6VlKMtXoRJnosWntHYFKsyTdm3Zou2l4fpq/vQspYWsx2Da4TKXxynsmKnSrUXaVuIuE93GSJ7tj9EOexlZy5SrsuB43XzrED3301n6OKuTsko2a9OOcjsahxUWFuqFF17Qxo0b3RoAAIDmNX78BH21cqX51KGVZsyNdesO16OnMajyktoCo1Gp4i3rtGFbqUKVZSqxA6NhhcftRVq/0Q2MdlW5Sksiwliowh6vGRgNZ5tVmdBaY1VgNCqs7VRPtIRUsXOT1q3bFDMwGkETeiMCoxEs2aYN6zZUB0Yjuo2RPNsfox32MlZgjFxfsEw7itarKCowAgAAtDT1+kwjpYmKFbDLSiusSBxjWkQBAABoKer3mUY0jaKXdf20O/T2TnccAACghYsbGs23ljMzM2P2glGar5h9bvY9AABAS+EbMGCgFVOcU9HWjTlhan8RZvOmTcrPz1fPnj0VMN8+QcKYwLhmzRpt27ZNH3zwgVsLAADQvMaNH6+V5oswVV+CsYec4dpC4w9PO0333nuv1q5da2ZFgnXv3l2XXHKJpk6d6tYAAAA0rwaFxlcWLDCzAAAAoI2IFxr5IgwAAAA8ERoBAADgidAIAAAAT4RGAAAAeCI0AgAAwBOhEQAAAJ785nI75lI79l3VDQAAANoi+yqM7rBzOUYHPY0AAADwRGgEAACAJ0IjAAAAPBEaAQAA4InQCAAAAE+ERgAAAHgiNAIAAMAToREAAACe7NDoXLTR3LoXcKy6oiMAAADajKoMaA1EXNjbjNPTCAAAAE+ERgAAAHgiNAIAAMAToREAAACeCI0AAADwRGgEAACAJ0IjAAAAPBEaAQAA4MkKje5lG7mgNwAAAPZgLvRNTyMAAADqgNAIAAAAT4RGAAAAeCI0AgAAwBOhEQAAAJ4IjQAAAPBEaAQAAIAnQiMAAAA8+Z2LeofCd1axb8wYAAAA2hQrA5os6Pw43GF6GgEAAOCJ0AgAAABPhEYAAAB4IjQCAADAE6ERAAAAngiNAAAA8ERoBAAAgCdCIwAAADz57Qs3ujdVF3EEAABAm1WVCUPV+ZCeRgAAAHgiNAIAAMAToREAAACeCI0AAADwRGgEAACAJ0IjAAAAPBEaAQAA4InQCAAAAE92aKx5gW8u8g0AANAWmQzo5MDqoTB6GgEAAOCJ0AgAAABPhEYAAAB4IjQCAADAE6ERAAAAngiNAAAA8ERoBAAAgCdCIwAAADz5Faq+hGPVNRxrXssRAAAAbUE4EJof584dD9HTCAAAAG+ERgAAAHgiNAIAAMAToREAAACeCI0AAADwRGgEAACAJ0IjAAAAPBEaAQAA4MkNjVWXbgwPAgAAoI2qjoPmwt7OOD2NAAAA8ERoBAAAgCdCIwAAADwRGgEAAOCJ0AgAAABPhEYAAAB4IjQCAADAE6ERAAAAnnz9+vUPWeyLNtr3Vunfr68WLlzozAEkwZw5c/Twww9r/fr1bg0AtG7dunXT+eefr3POOcetARJv7NhxWvHVV/L5fE6x6sy9dUNoRMs0ZswYrV69WhUVFW4NALRuaWlp6t69u5599lkVFBS4tUBixQuNnJ5Gi2R6GAmMANoS85q3adMmFRUVuTVAy0JoBACgBdm1a5c7BLQshEYAAAB4IjQCAADAE6ERAAAAngiNAAAA8ERoBAAAgCe/uT6jLWRfqdEZBgAAQBsUzoLWvZ0NwzUhehoBpCZ/r6N07tSpmjZtmqacfaj2MlegdWUPnqSLp06zp1107EBluPUAgIYjNAJIScHK3pr482t09dVX69fX/kzH9AynxnQNPOnnuvqaq+1pFxxewAsdADQBXksBpLTNK1ZoW/YInTC+l/3nrpQ+RBOP6aNtX67QFnuOamm5XdW7by8V5ES89AWylL9XH/Xt1Vm5aXHq/Blq37W3+vXuqrz0iG5N62U0u6CX+nRvr/T0LLVr1065mQF3Wi3bBIAUxKsYgJQWWL9SXxRnadgJE9THynJZw0/Qcf1KtXrtNqW780gddNAVf9d7H72j119dov9+uET3ntZH7YZM0WNvL9cHb72mV5e8p8WzTtBeMeoK+l2gJ5d9qg/feV2LXn9HHy59RleMyrVeQbvp+Nte0QfvL9Fr/1mqJU89qX99vFz/uWeyCmvZZjiDAkCqITQCSGm+ys/132U7lD38RB3TL1fDrfDYe/d/tei9HVUvcO3H/kZ3Xf49BV/9jSYdcabu+1+BJv56hi6fPkWHF27R/CsmatyxZ+h3r+7WQRdE122Rz1+ijx+9Qj88ZqyOm/KIvsweqfMvPU79J1yjm37YT2lrX9atP71az5b3Vg/5lBbwKy/mNq/RpM5uowAgxRAaAaQ0f/BbLXzhfe3MGKJJp/5Ak8ftrZ3vPKfX1rszKEODxhymbtqlHe0n6MrfTtX+Gbul/H4q2LlJ5eqqk25+WH+4ZKTWL3lDK76NrntHm1a/qsXFR+mndzysObedrn4BKbvb3hpx+PfUWSV6794bdPezT+n2P8zTGmuLIfO5ypjbHKjB3elrBJCaCI0AUpovVKqV/5ynt7dnqP+Y03RYz116f8F72pEZDmc+BQLmM4hl2rl5g4qKivTtsgX629Nv6KOnLtJp187V2xvbadjkq/TIk1er3QNnRdVdr3OueUwPXnm00pb8SVdOuUULt1urC0npGeazi0FVVATNhhRIz6h6UU2Luc03tT7Ad7kBpCZCI4DUV/Sq5v1nm9rtN0x9d76lZ19eqeKySndiqVa894m+U0ft3WWzXnvyUT3+zGKt/Pw/2nbwGer7xWO6dsov9MRXFQrkdddRF58fVddN/XoXKC20W99+tkqBQ47XQR2s1foqtGb5V9qlHB108VW68KQf6apfnqjuZpLKtTLmNhfouaXFdqsAINVYoTHkXrTRYg9UjQFACxdSZdD08m3W4nlvWLchbX5jnl4vCikYNK9tldZ0aeP8Gfr131YobeQ0/enp+Xrm8dt14Yg8pQ/6kf7w5Eta8M979aO9t2rx3Q/p0z7RdXfowacWaW1lD516xxOaeXixvtxqrb+yUhueuUV/emurAv0ma8Zdv9FBG5fZp6fNtNjbbG+3GgBaqvCFvN2B6nGLr2+/fiHnj8FYL7CmWP/69+unhQsX2jMAyTB48GAVF9MjgzgCGcrNypDKd2uX6VVMy7TG0xUq3aXicutFLS3LvvRNqGy3NW6CpU/p7buqR+cclX+3Tus371alP1PtC7uoU2a5tm3cqG0l1nyx6izm0jndOpRo44Zd8mdlKlBZquJgltqlVSqQ31XtK3ap4MwH9Nefj9D6B76vY256X2WxtmmvDYgtJydHc+fO1ahRo9waILHGjB2rr776ynr1sv75fNZLp7k3d9Y9oREtEaERKaH72Zr7jwuV9b8V2tVhPx00ooeyd7yhGSefozlfVbgzAXVHaESyxQuNfKYRABoqVKQvV5ap26AR2q9bqf734l2aetIFBEYArRKhEQAaat3Luv7MY3X4wd/TgYeM0eTpM/XyyhJ3IgC0LoRGAAAAeCI0AgAAwBOhEQAAAJ4IjQAAAPDkhkZzoR2XNVA1DAAAgLbFDYI18qA1Qk8jAAAAPBEaAQAA4InQCAAAAE+ERgAAAHgiNAIAAMAToREAAACeCI0AAADwRGgEAACAJ7995cZYF3EEAABAm+RkQus2VJ0O6WkEAACAJ0IjAAAAPBEaAQAA4InQCAAAAE+ERgAAAHgiNAIAAMAToRFoMJ97n2pStd0AgGTyV199xwyFuFYjWpe8YTr5wvM1rm+aW+Hwdf+hZj8/U8cXuBX1lXWIfvvaPE3vn2L/70pmu/c6S4+/OUvHtnfH66qhy8XTHOsEgFZijyxoVZg6ehrRugU7afRF39c+vkq3whHa8bFeeuoVfVHsVjSEL0V/fZq83XvpuBse0LXj8t3xxmrq9dWCDlcAqBdCI9qmXZ/r5acXalWJO25Jy+2iXr26qF3NTska0vK6qVePAuUE3IoI/qxO6r733uqal+bmEb/Ss3OVGV6fP02ZWekKL+pLz1ZOuvUr6E9Xdk6m0nxpyu2yt3oWZNWeZ6x52nXdW733yldWeEV1WD5eu+vcTnskevs++QLp2mvwIHXJylFuVvixW1MyO2gva3/s1T4jqj1OO/funB3jBaj29cVbzvO582eofbe91atLO2s/uXUR/BnWtjIzlRm5H4y0LKs+sg0A0HYRGtE2dT1df15wm8blmZEcDbl4jhYvmadH5szTkiWP6NyB6fZs1XI18vKn9c6b8zTnkaf1z8cuVv/KoDstW/td+BctefffeuLPj+i5N9/Vc785UlaE1JkP/0t3HOecA08b8nO9+P4jOqO7GcvV6BnP6MEze1lt+aH+/O8H9P/+NF/zH39Ezy55V/+4dIgy7KUi5B6qa1/8j/79xP2a/eQrWvy3n+mAHKs+7vLx2h1Wx3bG2n5uX53/yJO6bGhXjb/xGb3y8Pnq60tXv9Pu0sK3F+qJBx7S3xfO1UV93dgV7KAJv5uneXMf0d8Xv6f5Px9p7b0Ivljrs+prXa4Oz13B0bpx3ut68bEHNOfFBbpnchd3giO975l64PWX9bvj9teP5yzUfZO7ulMCGjTlMT3zm8OsvQAAIDSizUsfMk0zz9umG48ZrbFjjtBpD+Xqop9NsEJfNTPP787ZopsmHKYx48fo+N+uUOe9nF+f9KGX6vYppZp57ME60pp2yFG/0heTfq8rRm/TG6+s16DRQ6zQkaaBRw3Rls9zNPrAQmuhATr8oBItfuMbex3qtI8C83+s8dbyY6Y8ry5nnaEDaqQpi2+b/v2L8Ro95jgdN+4cPZFzmn44yo0ztSwfr93Vvq1bO2Nt/4AN+vPZp2nW8g3619XH6ZAzH9DXAy7S7b/sqL+ceqiOOnaCRo+eqr9tcD8h03mwMp47RxOOsdp58Tzln/YDjYx8nKGv9ljfV2bRWpary3PX4/ipGrf6Rp047liN+d7huuzFze4U6yF1OVa/+8vlqrz9bP183jt64alPNfCEo9TNTEwbrBNOaq/X/vG2dtpzA0DbRmhEm9fj4NHK356nyTfdq9mz79aVo3OV1XeACiN+O7ofdKg6vDNPi9Y7n43c9fEivVNkD6rHQYco982/acHaCns8uOVNPbe4QkP3767Vr7+mkoOO1L5ZvTXm8KBenf+N+hw+VB16HaqDy17Tq1+7vX7fva9/v73Z/qDxji8/0ipfgTplOpOq7PxCq/NO0i//8Gc99ews/bBXpnJy3HOptSwfr93VQlpVl3bG276loqLcvu8xeow6/+dRPbuizB4PlW7VtvBnR7e+p5fddu407VRH5Uc/Tld4fbZalqvLc7fxvde0/sibNGfmRTqiZ7rKSt3Pt1b00FmzrlXBgz/WT576WubZW7fgSX3Q/2SN6+FTzshTdWz5fD39YakzPwC0cYRGtHE++QN+Bdcs0V8feVRz587Vow/dop9e97w2uHOYeQJpaQqVl6vq6zSBTPezbz75/H6lpafX+GUKhoIKBUOqWLFIr5YfoiOPGqdDSxdp3guvae2gwzXmyIOlN17VCidnWsmqQhXhs8bBSlWadBSl0zG36albDtTaZ2fqih9frLs/jPhAZszl47W7pso6tDPu9qv47H0R8Fn7xa2pyWpnuDHWPoo+UV67WMvV5bmTyj+7Tz88/Czdv/5Q/fZfr+quE9zT074SffddmnoN6q324Sdv6+t68rWOOm78CB180iitfWq+Pg8/RwDQxhEa0SakWeHJ7/PLbwU8K89ECGn9Rx+qcv8Ryvn8TS1evFiL3/xEGzZt1baqRBPSxv/9T75DJ+qQTuZXxqdOh56gwwudaWv/+66KDztVE7o7aczf6VCddERQ773zjZXlPtcrr1Xq0B8dptJFS/Tthrf0+o5ROvO4jlr26v/k9MXVRUBd9x2g8jef1N8Xf6JvM4Zr9L7mA40x0mWVeO2O4tnOeNsPqrLSr+ws02Vo7Y+l76t09A90TA9nf/hyu6mr/dnRuopcXzx1ee6kvG7dlbPjUz03c4qmzFqroUfu53xGMbBZz13xE7005Peaaz6Dah8Xu/TOP95UwaQLdNaBG/TsP7929nAgT10659QShAGgbSA0otUL+ffTZfOWafnHy7X8k4/03E8GV30z2Ch+a5ZmvDRQt77+rha9/G+9+e7zuvbgdu5Ux84ld+rmJSN0+6tLtHDBq3ryzKCWr3GSSenSWfrFw+30qwXv6rUFi/TWot+q66M/1x3vm564Un362kfqNbqT3l+yykQqvflaSMP6fKFXP6rP9X4qtWLBS9o2+QEtWrhQr82ZqOBKs3z8GBOv3TV5tTPe9jfqvcVFOuKWZ7XwkYvU/b936IpH8nTVv9/V6wsW6q3Ff9QkJ5HVUc319YuzaF2eu47H3ak3li7Rv19epL9eVKanH33Hioaunf/V7RdeqfeO/KMe+dUhMpdtLP3wab2QOVaDP3pCC91T+Z1P+IP+9c/faXwzXwUIAFoyX5++/UIKmYt6mzun9O/XX4sWLXRnARJv8ODBKi6uT6iqTUAZOVlKjwgewbJi7a5MU1amTxUlZapwT+Wmd9hL3a1QsGPjBm3ZXXVCN4JfOZ17qrN/s9Zu3C1fdpb85cUqdU9fBnI7q3vnLBUXrdPm4ojlAxnKyZTKdrvbMpdxCZSruLTS7cXKULbVlvLdpc50cwmdrIA1XuK2rZo/M19dO2dq58aN2h3IUVrFLpWEvJaP3+4qXu20xNy+vZ6Asgu6Kr+8SOu2O59FTMst1F6d0rWzaL22llhBNebj9FeP1xCxvl0+j+W8njtrXZ26qjC7XFs2FmmnaV5UW3zpOcrNCKqk2NpnaUN1xXOz1P76E3TdW+4x6MtUu5ygdu6K+Jwl0AxycnLsj1qMGjXKrQESa8zYsVqxYoV85mNG9keNrDdQe9i6IzSiJWq60AjUVZqy27VT94m/159/8I7OO/PPWhnr/w5AMyI0ItnihUZOTwOAratOuXO+Hj5ji2b+Yg6BEQCiEBoBwPatHr/oSB35/Wv03Gq+Mg0A0QiNAAAA8ERoBAAAgCdCIwAAADwRGgEAAOCJ0AgAAABPdmi0r4+7x8V1AQAA0KaE86C5t0pkPKSnEQAAAJ4IjQAAAPBEaAQAAIAnQiMAAAA8ERoBAADgidAIAAAAT4RGAAAAeCI0AgAAwFNVaLQv3uheyBEAAABtlJsFoyMhPY0AAADwRGgEAACAJ0IjAAAAPBEaAQAA4InQCAAAAE+ERgAAAHgiNAIAAMAToREAAACerNBYfUVvrusNAACAmpnQGrN+6GkEAACAJ0IjAAAAPBEaAQAA4MnXp2/fkEXWj1XsG/Xv31+LFi10ZwESb/DgwSouLnbHgLqpqKiwi/1ahjrz+XxKS0uzSyzs14bx2q+x5OTkaO7cuRo1apRbAyTWmDFjtWLFCnMA28ewU6xR84/QiJaI0IiGKCkp0YgRI9SnTx/5/ZxIqYtgMKhVq1bpgw8+UFZWlltbE/u1/uqyX2MhNCLZCI1IOYRGNMTu3bs1efJk7dq1S6WlpW4t4snMzFRubq6effZZZWdnu7U1sV/rry77NRZCI5ItXmjkv4wAWhXzAmd6xpz/DFO8itlXZp95Yb/Wr9R1vwKphNAIAAAAT/7qqzdWDQBAyorV60PxLl5iLUPxLkDqiTxuzbBV3Cp6GgEAAOCJ0Aig1YnV40OpvdRVrGUptRegtSE0AkATC3Tor8NOPkfTLp2ui844RsO7ZrpTLDn9dcSJk/S9vQJuRZb6HTFZkyfsp3y3ps3LKNR+Y36g8y+5VNMvOkuTDuql3M7H6ob7/08H57rzAEg4QiOAViVWj08iS97+F+oP916nUweEtG7lam3vMFqX3nGXfnFUF/nMPJV5Gn7i0erlq7Tm96lwzM90zVm9tPbdT7Q1al2JLF5iLdMcJb3X8fr1PXfqsiMLtOublVqzI1f7jz9Y3dwvIsdapiUXoDUhNAJoVWK9cSes5H5P518+Wmvu/ql+ftsjeub5+Xri3t/o8huXqOcF0zS2wG2f1U5zzbPcYedZgTFdf7vhbr21Jbjn+hJYvMRapslLxiD96JenK/D3K/WT6+7VE/Of17N/vU833fSUvqiw2miaGTG/0vPUuWtXdcy23soi6kNKU06nruqSn229yVXX+7Py1aVLvrL9EfM2cwFaE0IjADSRvOFHa/9tL+rJNzaHv2xo2/3JC3ppVR8dMaqzWyOl9TheV1y+n9697Ta99G2FW9u25QyboMMr/6VHX16jcrcutkz1PWmG7v/LXbrp2uv0hwf/oj9cOFLtzaQOozRl5mzdceM1uu6Ou/TLozpalVnqN/l63X//bZpx3Uzd/8AMTepV9z/tB8BBaATQqsTq7UlMkdp37aLKNau1qTJ62nZ9+22x8gray2/SZDBbo8+dpG0P/lZzP9kVNW9yipdYyzRtkfJ79JRWf6kN5TGmO62whwP9TtXPJpfpscvP15RLp+n8qXdp9WHT9aPhWSo8dLIOXP+gfj79Ml1y7sWa+cY2BfqeossmbdeDl12k6ZdcrKvmZeukMw5SXvQ2mqEArQmhEQCaSLAyKH9amsJfcanmV3q6XxWlZQqaUd9ufb50sw748RkaaXePIcznD8jr76gU7jdMWR++oneKKu3x0PaPtPiDoPoPLNTWT97X5pHTdMNPT9aILmkqLwuqcMj+ytuZq6OmXaWrr/6lzrbCZWb3nurIH2wB6qWW0Mj/jgCkpli9PYkpQW1euUrBQQdoYE7UtPS9NXxwur5esVFBa1y+kL594f/pzg+H6WdXn6q+GVHzJ6F4ibVM05agNln7L7TvARoQvf/c4rTDuvH5FEizwmXEtKC1fCgYVPmqv+uqi67VPzYP07S77tMvRneygqhPoaIP9PLzL+rFF60y72HNnL1YmyOWb64CpK6ax68Zo6cRQKsS6407UWX38vl69ttRunjaGO2V7rYl0EkHnneJjtxmTVtW7NRZ7fRph967/2Y9UTJJV19+lAqtIBm5rkQXL7GWaeqy+6Pn9NzGgzRt+jj1yAhv0692PXqqk9k/5p8VDos++0Qlw8bqoM5+ex7lDdWRI4L6ZPl6ZXcqUNbOlXp9zk266Yki9R/ZRzu/+EKVA/dR5tcfaOnSpVq6bKU2b/1O24POdpuzAK0JoREAmkrFas27+RYtyDtLdzz2uB55+BE9/tg9mtLjDd160zP6Ovx9FytLmJ4xVXyj52f+Ue/1vUTXXbi/2rmT26yKVfrHb2/RK3ln6vbHntCjDz+sOX99XPdfcYQVGt15LGWfPaE/Ppetc+95VA/cc58emX2JOr14ux7/rEx5h/1CDz3+kO7502zdMrlCC15crm3Ln9DsN3rp8gce1ew/3aM/P3qnLhyW464NQF35+vTpa/4/5P6vyKqxbvr376dFixY5cwBJMHjwYBUXF7tjQN3s3r1bEydOVFFRkVuTLD6l5XZUQft0lW/frK27KuzeRYdf6VkZ8pWVqMz+gKM1d1qmstJDKispU2USOqcKCwvt07bZ2dluTU2J36/u/uuQpVDxFm3+rkSVvnRlZli5srS8ah/5s/NVmJ+p0q1F2lbi7kxr/2a2L1DHrApt37JVxVVfTLfW2a6zCvOkXVs2a3tpeP7m47VfY8nJydHcuXM1atQotwZIrDFjxmjFiq/Mr4x8Pp9TnBF6GgGg6YVUsWuLNqzboC01AqMRVHlJdWA0QhWlVjBLTmBsmdz9t3atNm6zAqPZL8FylZZUB0YjuHubvY+rA6MRVOn2Iq3fGBkYDWudO4u0bl1RQgIj0BoRGgG0KtGfKaPUrXiJtQzFuwCtCaERAAAAngiNAFqVyspKZWZmxuz1oexZzL4y+8wL+7V+pa77FUglfBEGLRJfhEFDlJSUaNCgQerZs6cCgT0vsY09mWCzZs0affbZZ8rKynJra2K/1l9d9mssfBEGyRbvizC+3lZoNEHRDo12eJQdGl8lNCKJCI1oiIqKCruY1zPUnXlTSEtLs0ss7NeG8dqvsRAakWxH26FxxZ6B0RRCI1oiQiOAtojQiGSLFxr5TCMAAAA8ERoBAADgidAIAAAAT4RGAAAAeCI0AgAAwBOhEQAAAJ4IjQAAAPBkh8aal2vl4q0AAABtmomDVolMhfQ0AgAAwBOhES1St27d6vWntwAg1ZnXvE6dOrljQMtj/xlB+++JVv0ZwZD69+/PnxFEUs2ZM0cPPPCANm3a5NYAQOtmAuPEiRN16qmnatCgQW4tkFhVf0bQ/PNF/N1pUwiNaKk2b96soqIi7dq1y60BgNYtNzdXhYWFKigocGuAxCI0AgAAwFO80MhnGgEAAOCJ0AgAAABPhEYAAAB4skOjzx602FdwrBoDAABAWxQjDtLTCAAAAE+ERgAAAHgiNAIAAMAToREAAACeCI0AAADwRGgEAACAJ0IjAAAAPBEaAQAA4MkOjfY1vavUHAMAAADoaQQAAIAnQiMAAAA8ERoBAADgidAIAAAAT4RGAAAAeCI0AgAAwBOhEQAAAJ4IjQAAAPBEaAQAAEA183de9vhbLyFCIwAAALwRGgEAAOCJ0AgAAABPhEYAAAB4IjQCAADAE6ERAAAAngiNAAAA8ERoBAAAgCcrNDpXb6y6huMeF3MEAABAWxMdCelpBAAAgCdCIwAAADwRGgEAAOCJ0AgAAABPhEYAAAB4IjQCAADAE6ERAAAAngiNAAAA8OSGRq7oDQAAgGgmI1rF+qGnEQAAAJ4IjQAAAPBEaAQAAIAnQiMAAAA8ERoBAADgidAIAAAAT4RGAAAAeCI0AgAAwBOhEQAAAJ4IjQAAAPBEaAQAAIAnQiMAAAA8ERoBAADgidAIAAAAT4RGAAAAeCI0AgAAwBOhEQAAAJ4IjQAAAKjmc+9t7oh1R2gEAACAJ0IjAAAAPBEaAQAA4InQCAAAAE+ERgAAAHgiNAIAAMAToREAAACeCI0AAADwFBEaQ+49AAAA2qxYkdCqo6cRAAAAngiNAAAA8ERoBAAAgCdCIwAAADwRGgEAAOCJ0AgAAABPhEYAAAB4IjQCAADAU0Ro9NW4AwAAQFtXfaVvehoBAADgidAIAAAAT4RGAAAAeCI0AgAAwBOhEQAAAJ4IjQAAAPBEaAQAAIAnQiMAAAA8ERoBAABQrZY/9EJoBAAAgCdCIwAAADwRGgEAAOCJ0AgAAABPhEYAAAB4IjQCAADAE6ERAAAAngiNAAAA8ERoBAAAwB6ca3xXX+mb0AgAAABPhEYAAAB4IjQCAADAE6ERAAAAngiNAAAA8ERoBAAAgCdCIwAAADwRGgEAAODJCo3VF20EAAAAanKyIj2NAAAA8ERoBAAAgCdCIwAAADwRGgEAAOCJ0AgAAABPhEYAAAB4IjQCAADAE6ERAAAAntzQ6HMu28h1vgEAAOCqiobWAD2NAAAA8ERoBAAAgCdCIwAAADzFCI3u5xsBAADQNpkwGBUI7dBo15EUAQAA2jQnK8YKhb6InsaQc2dmq6isVFFRkVMBAACAVs9kv4qKSndsT05odGJl+EalJaX6/Isv7GEAAAC0fib7lZSWuGNub6N15w7JHx4wwsOlZaX64vPP3TEAAAC0dib7lZWW2cNOJnSToXvnr0qKERN27tipxx57XGvWrHHqAAAA0GqZzGey386dO6siocMZMbd+586d6t6Vl5dr/fr1+tPddzsVAAAAaLVM5jPZz2RAm5UJ3VhocUYC+R07Xm+P2lOqJ5tz2ps3bdaKFSs0aNAgtW/f3p0CAACA1sD0MN5yy++0cNFCbd682a7zmVBoFfvODozucJ++/UIKWT/mn/kGdeSwpUOH9urWrZvOPussDRw4UPvss48KCwudiQAAAEgp5lvSn3/+ub744gvNfewxu4dx+3fbnYk1gqITFu0aU9XXCo3hkBhyUuMe4TE9PU157fKUkZmhrMwsBQJ+a4o9axxxJ8bV4CUbvslGSPxGU+thJqW1CddGDj1L23g+k8N+ZW79kvAw28ietTTwkbaZ5yTxW3UCV6LF2ag1yUw1l9UpLS1RaVmZ/RnG8vIKJxTaM7gBsWrYGbdr+vazQqN5H6gKidaI+XHHnZ+Ieuem6r429vSGauCiydhmYzS4vQ1ua8MfZBJ2T2o9J6mmjTxMeLDfCFAb+00z0RqxyYYvmjqPMxnPiX2qNtEascm4+8iaZE93g6Az7Nw7p6TDdZHTq4djhEazVnNvDdg/NYf3uK+Fs9IEa8Qm4z2WuJLyMNtAWxsjCZtsjKTsIyBJ7DehtqCBD7NxeycpG22QpBwHDd49jWhrC9umvV77J/Leuo2sM+PherOMPdEd7tuvv/WeZd62rDcu87PHsCWyzvxzKu2f2rhLNkwDF20r22yoRrW1oZKwycZsNMWai2aSjN8V5yUZtUrC7mncJhu4dAodBkk5ZhuxyQa3tzVt055kzWHd2/NV3UfWOcP2mBm2B93p/azQaF4g7SDohsPIYeen+j6617E29vREa8QmG9zepDzMNtDWxkjCJhuz0aQ0t61IpZ1rvzK3fsl5mEnYalI2meCNNmJzCW+r0cBNNqqtydhmPG4I3ONUtD3NGY97mtoJjdZrq3PrBEb73hqwf9x7a9yZZO7D0+JwVtQg7pYSq4GbbFRbE/wwU6mtjZGU46cxUqy5DddmHmiCWS/mbUGKPUz7TTbRErzJVHuMDW5vim0z3sL2FOvGbleNQFizzh4zw/ZgRF2//lZotF/Lrbdac++Gwxoh0q1z7q0h+8e5r427RMM0cNFGbbOhGvUwE9zepOye1HpOGiopjxPNJxlPp/2ijNq4b1+pIwnNTfg+SrXH2MBFk3LsOSmtQeIuaU20H4/5sbfhPrrIYGiGI+rsMbfOCo0DrPc75y3PTY/uvV1tRpw3RPsnxn1t4kzyEne98TRimw3V4LY2Qvh5SqgkbLKhkvGcpNL+SZakPC9tgPvyjniSsIuS8ryk0KHgBJbEavBz0qimNmzh5tqkEwCj7909ExUSnarIadL/B5ljMRo0PmOsAAAAAElFTkSuQmCC;" vertex="1" parent="1">
          <mxGeometry x="1298" y="210" width="653" height="418" as="geometry" />
        </mxCell>
      </root>
    </mxGraphModel>
  </diagram>
</mxfile>
